<svg width="48" height="48" viewBox="0 0 48 48" fill="none" xmlns="http://www.w3.org/2000/svg">
<path d="M39 0H9C6.61286 0 4.32402 0.94796 2.63625 2.63625C0.948079 4.32402 0 6.61272 0 9V39C0 41.3871 0.947959 43.676 2.63625 45.3638C4.32402 47.0519 6.61272 48 9 48H39C41.3871 48 43.676 47.052 45.3638 45.3638C47.0519 43.676 48 41.3873 48 39V9C48 6.61286 47.052 4.32402 45.3638 2.63625C43.676 0.94808 41.3873 0 39 0ZM41.9997 39C41.9997 39.7957 41.6837 40.5585 41.1213 41.1214C40.5584 41.6838 39.7957 41.9998 38.9999 41.9998H8.99992C8.2042 41.9998 7.44139 41.6838 6.87849 41.1214C6.3161 40.5585 6.00011 39.7957 6.00011 39V9C6.00011 8.20428 6.3161 7.44147 6.87849 6.87857C7.4414 6.31618 8.20417 6.00019 8.99992 6.00019H38.9999C39.7956 6.00019 40.5584 6.31618 41.1213 6.87857C41.6837 7.44149 41.9997 8.20425 41.9997 9V39Z" fill="#1E1E1E"/>
<path d="M36.6214 32.3789C37.7928 33.5503 37.7928 35.4499 36.6214 36.6212C35.4496 37.7931 33.5505 37.7931 32.3786 36.6212C31.2072 35.4499 31.2072 33.5502 32.3786 32.3789C33.5505 31.207 35.4496 31.207 36.6214 32.3789Z" fill="#1E1E1E"/>
<path d="M26.1214 32.3789C27.2933 33.5503 27.2933 35.4499 26.1214 36.6218C24.9501 37.7931 23.0505 37.7931 21.8786 36.6218C20.7072 35.4499 20.7072 33.5502 21.8786 32.3789C23.0505 31.207 24.9501 31.207 26.1214 32.3789Z" fill="#1E1E1E"/>
<path d="M15.6215 32.377C16.7933 33.5489 16.7933 35.448 15.6215 36.6199C14.4501 37.7913 12.5505 37.7913 11.3792 36.6199C10.2073 35.448 10.2073 33.5489 11.3792 32.377C12.5505 31.2057 14.4501 31.2057 15.6215 32.377Z" fill="#1E1E1E"/>
</svg>
