<svg width="65" height="48" viewBox="0 0 65 48" fill="none" xmlns="http://www.w3.org/2000/svg">
<path d="M32.6072 0.866699C37.3684 0.866699 42.1374 2.67574 45.7701 6.30844C48.8531 9.39137 50.6289 13.2893 51.0956 17.3082C58.6771 17.9965 64.6079 24.3618 64.6079 32.1228C64.6079 40.3428 57.9441 47.0066 49.7242 47.0066H13.259C6.25005 47.0066 0.60791 41.3639 0.60791 34.3555C0.60791 27.3466 6.25058 21.7045 13.259 21.7045H14.1425C13.4868 16.2315 15.2679 10.509 19.4679 6.3091C23.1006 2.6764 27.8463 0.867363 32.6075 0.867363L32.6072 0.866699ZM32.6072 16.4946C32.2121 16.4931 31.9349 16.5673 31.6074 16.8668L23.4211 24.3087C22.8386 24.8315 22.7317 25.8509 23.3048 26.4251C23.8576 26.979 24.8434 27.0455 25.4212 26.5181L31.1189 21.3312V37.3312C31.1189 38.1535 31.7849 38.8195 32.6071 38.8195C33.4294 38.8195 34.0954 38.1529 34.0954 37.3312V21.3312L39.7931 26.517C40.3708 27.0444 41.3842 27.0039 41.9095 26.4241C42.4348 25.8442 42.4047 24.8403 41.7932 24.3077L33.6069 16.8658C33.394 16.6711 33.0047 16.5014 32.6071 16.4936L32.6072 16.4946Z" fill="white"/>
</svg>
