<svg width="96" height="96" viewBox="0 0 96 96" fill="none" xmlns="http://www.w3.org/2000/svg">
<path d="M73.7531 0.00220683H22.2491C10.0119 0.00220683 0 10.0139 0 22.2508V73.7514C0 85.9884 10.0119 96 22.2491 96H73.7509C85.9881 96 96 85.9884 96 73.7514V22.2486C96 10.0123 85.9881 0 73.7509 0L73.7531 0.00220683ZM64.5438 42.4997H58.0746V78.0356C58.0746 79.3332 57.0235 80.3843 55.7258 80.3843H40.2958C38.9982 80.3843 37.9471 79.3333 37.9471 78.0356L37.9479 42.4997H31.4787C29.5422 42.4997 28.4506 40.295 29.6043 38.7501L46.1465 16.5633C47.0734 15.3071 48.9685 15.3071 49.8962 16.5633L66.4384 38.7501C67.5722 40.296 66.4591 42.4997 64.5433 42.4997H64.5438Z" fill="#63BF7F"/>
</svg>
